<svg fill="pink" viewBox="0 0 96 96" xmlns="http://www.w3.org/2000/svg" xmlns:xlink="http://www.w3.org/1999/xlink" id="Icons_Cloud" overflow="hidden"><g><path d="M78.2 47.9C77.9 47.9 77.5 47.9 77.2 47.9 77.2 47.9 77.2 47.9 77.2 47.9 77.2 43 74.8 38.5 70.9 35.7 66.9 32.9 61.8 32.2 57.2 33.8 53.4 26.4 45 22.6 37 24.5 29 26.4 23.2 33.6 23.2 41.9 23.2 41.9 23.2 42 23.2 42.1 17.7 41.2 12.2 43.5 8.8 47.9 5.5 52.4 4.9 58.3 7.2 63.3 9.6 68.3 14.6 71.6 20.1 71.9L20.1 72 78.1 72C84.7 72 90.1 66.6 90.1 60 90.1 53.4 84.8 47.9 78.2 47.9Z"/></g></svg>